<svg width="305" height="215" viewBox="0 0 305 215" fill="none" xmlns="http://www.w3.org/2000/svg">
<g filter="url(#filter0_dd_1797_1262)">
<g clip-path="url(#clip0_1797_1262)">
<rect x="12.2493" y="4.24921" width="280" height="190" fill="white"/>
<path d="M292.249 4.24921H12.2493V194.249H292.249V4.24921Z" fill="#FF0000"/>
<path d="M124.249 4.24921H12.2493V194.249H124.249V4.24921Z" fill="#006600"/>
<path fill-rule="evenodd" clip-rule="evenodd" d="M160.761 128.718C146.663 128.286 82.0156 87.2126 81.5723 80.6718L85.1421 74.6122C91.5545 84.0961 157.643 124.041 164.135 122.625L160.761 128.716" fill="#FFFF00"/>
<path d="M160.761 128.718C146.663 128.286 82.0156 87.2126 81.5723 80.6718L85.1421 74.6122C91.5545 84.0961 157.643 124.041 164.135 122.625L160.761 128.716" stroke="#000008" stroke-width="0.211055" stroke-linecap="round" stroke-linejoin="round"/>
<path fill-rule="evenodd" clip-rule="evenodd" d="M84.3911 73.7891C83.1263 77.2536 101.261 88.6651 123.079 102.172C144.897 115.678 163.709 124.025 165.104 122.828C165.189 122.673 165.79 121.621 165.735 121.63C165.473 122.03 164.837 122.157 163.845 121.866C157.95 120.135 142.576 112.952 123.537 101.2C104.498 89.4476 87.9328 78.6171 85.3582 74.0153C85.1792 73.6965 85.0516 73.1146 85.0775 72.6621L85.0149 72.6612L84.4668 73.6365L84.3914 73.7894L84.3911 73.7891ZM161.092 128.908C160.853 129.35 160.408 129.364 159.561 129.27C154.288 128.676 138.286 120.755 119.352 109.218C97.3207 95.7949 79.1254 83.5637 81.0994 80.3669L81.6365 79.4005L81.7422 79.434C79.9672 84.8514 117.651 106.784 119.87 108.182C141.674 121.932 160.057 129.961 161.684 127.875L161.092 128.911V128.91L161.092 128.908Z" fill="#FFFF00" stroke="#000008" stroke-width="0.211055" stroke-linecap="round" stroke-linejoin="round"/>
<path fill-rule="evenodd" clip-rule="evenodd" d="M124.328 84.6335C138.439 84.52 155.851 82.6709 165.872 78.6058L163.713 75.0353C157.79 78.372 140.282 80.5662 124.209 80.8944C105.199 80.7164 91.7801 78.9146 85.0568 74.3228L83.0188 78.1249C95.378 83.4482 108.043 84.5784 124.328 84.6335Z" fill="#FFFF00" stroke="#000008" stroke-width="0.211055" stroke-linecap="round" stroke-linejoin="round"/>
<path fill-rule="evenodd" clip-rule="evenodd" d="M166.454 78.6864C166.109 79.2478 159.574 81.5418 149.947 83.2347C143.419 84.2476 134.904 85.1136 124.278 85.1241C114.183 85.1337 105.936 84.4022 99.6922 83.5409C89.5861 81.9281 84.3702 79.6839 82.4419 78.8909C82.6263 78.5176 82.7448 78.2558 82.9226 77.9072C88.4736 80.1568 93.7138 81.5133 99.8528 82.4747C106.055 83.3297 114.203 84.0717 124.248 84.0621C134.825 84.0512 143.246 83.1195 149.736 82.1367C159.608 80.5159 165.001 78.4301 165.758 77.4615L166.455 78.6864H166.455H166.454ZM164.559 75.0657C163.489 75.9404 158.157 77.865 148.777 79.3898C142.517 80.303 134.557 81.1204 124.387 81.1304C114.725 81.1401 106.831 80.4773 100.827 79.5871C91.3005 78.3207 86.2302 76.0363 84.4022 75.3703C84.5841 75.0502 84.7693 74.7327 84.9595 74.4139C86.3818 75.1428 91.2749 77.1645 100.932 78.557C106.868 79.4137 114.773 80.0521 124.387 80.0421C134.509 80.0316 142.379 79.1984 148.599 78.2901C158.028 76.9697 163.102 74.5152 163.872 73.9007L164.56 75.0648L164.559 75.0657Z" fill="#FFFF00" stroke="#000008" stroke-width="0.211055" stroke-linecap="round" stroke-linejoin="round"/>
<path fill-rule="evenodd" clip-rule="evenodd" d="M77.9926 101.937C86.6717 106.689 105.948 109.083 124.19 109.248C140.799 109.275 162.437 106.635 170.528 102.27L170.306 97.5148C167.774 101.541 144.586 105.404 124.01 105.246C103.433 105.088 84.3252 101.853 77.9557 97.6653L77.9927 101.936" fill="#FFFF00"/>
<path d="M77.9926 101.937C86.6717 106.689 105.948 109.083 124.19 109.248C140.799 109.275 162.437 106.635 170.528 102.27L170.306 97.5148C167.774 101.541 144.586 105.404 124.01 105.246C103.433 105.088 84.3252 101.853 77.9557 97.6653L77.9927 101.936" stroke="#000008" stroke-width="0.211055" stroke-linecap="round" stroke-linejoin="round"/>
<path fill-rule="evenodd" clip-rule="evenodd" d="M170.971 101.254L170.972 102.388C169.755 103.868 162.13 106.105 152.568 107.68C145.29 108.816 135.802 109.673 123.979 109.673C112.747 109.673 103.789 108.857 96.843 107.772C85.8628 106.144 78.8395 103.294 77.4297 102.444L77.4358 101.121C81.6708 103.987 93.1443 106.083 96.9971 106.725C103.898 107.803 112.802 108.612 123.978 108.612C135.746 108.612 145.181 107.761 152.413 106.633C159.273 105.624 169.047 103.001 170.971 101.254L170.971 101.254ZM170.976 97.2199L170.976 98.354C169.76 99.8332 162.135 102.07 152.572 103.645C145.295 104.781 135.806 105.638 123.983 105.638C112.751 105.638 103.794 104.823 96.8477 103.737C85.8675 102.11 78.8442 99.2605 77.4344 98.4096L77.4405 97.0866C81.6754 99.952 93.149 102.049 97.0018 102.69C103.903 103.769 112.807 104.578 123.983 104.578C135.751 104.578 145.186 103.727 152.418 102.598C159.278 101.589 169.051 98.9659 170.975 97.219L170.976 97.2199Z" fill="#FFFF00" stroke="#000008" stroke-width="0.211055" stroke-linecap="round" stroke-linejoin="round"/>
<path fill-rule="evenodd" clip-rule="evenodd" d="M124.151 127.901C104.191 127.78 87.0879 122.363 83.4763 121.468L86.1099 125.664C92.4892 128.396 109.174 132.466 124.342 132.016C139.511 131.565 152.767 130.369 162.109 125.74L164.809 121.391C158.443 124.443 136.778 127.87 124.151 127.901Z" fill="#FFFF00" stroke="#000008" stroke-width="0.211055" stroke-linecap="round" stroke-linejoin="round"/>
<path fill-rule="evenodd" clip-rule="evenodd" d="M163.122 124.766C162.725 125.383 162.32 125.993 161.91 126.585C157.504 128.167 150.561 129.827 147.631 130.311C141.647 131.566 132.388 132.493 124.17 132.498C106.488 132.234 92.0145 128.711 85.2054 125.706L84.6559 124.744L84.7457 124.6L85.6774 124.967C97.7865 129.377 111.387 131.136 124.27 131.452C132.454 131.481 140.647 130.497 147.273 129.291C157.433 127.219 161.541 125.658 162.801 124.95L163.122 124.766ZM165.463 120.836C165.473 120.848 165.484 120.859 165.493 120.872C165.197 121.382 164.891 121.901 164.578 122.422C162.228 123.277 155.85 125.176 146.537 126.502C140.401 127.353 136.587 128.177 124.38 128.418C101.506 127.826 86.6966 123.273 83.1784 122.15L82.657 121.133C95.9131 124.655 109.454 127.114 124.381 127.365C135.549 127.123 140.3 126.286 146.385 125.441C157.245 123.722 162.716 121.903 164.359 121.377C164.338 121.347 164.314 121.315 164.287 121.283L165.464 120.835L165.463 120.836Z" fill="#FFFF00" stroke="#000008" stroke-width="0.202583" stroke-linecap="round" stroke-linejoin="round"/>
<path fill-rule="evenodd" clip-rule="evenodd" d="M165.703 98.1851C165.768 111.55 159.048 123.543 153.636 128.834C145.979 136.32 135.826 141.135 123.97 141.357C110.731 141.604 98.2476 132.819 94.8993 128.96C88.3529 121.415 83.0231 111.833 82.8523 98.9195C83.6632 84.3327 89.289 74.172 97.444 67.2042C105.599 60.2364 116.457 56.843 125.5 57.0857C135.934 57.366 148.122 62.5758 156.544 72.9184C162.061 79.6948 164.45 87.0487 165.703 98.1851ZM124.083 52.4227C149.509 52.4227 170.421 73.4832 170.421 99.3066C170.421 125.129 149.509 146.191 124.083 146.191C98.6564 146.191 77.9182 125.13 77.9182 99.3066C77.9182 73.4832 98.6564 52.4227 124.083 52.4227Z" fill="#FFFF00" stroke="#000008" stroke-width="0.211055" stroke-linecap="round" stroke-linejoin="round"/>
<path fill-rule="evenodd" clip-rule="evenodd" d="M124.206 52.2622C149.656 52.2622 170.411 73.3916 170.411 99.2976C170.411 125.203 149.655 146.332 124.206 146.332C98.7572 146.332 78.0012 125.204 78.0012 99.2976C78.0012 73.3916 98.7576 52.2622 124.206 52.2622ZM79.0181 99.2978C79.0181 124.596 99.4282 145.298 124.206 145.298C148.985 145.298 169.395 124.596 169.395 99.2978C169.395 73.9984 148.984 53.2969 124.206 53.2969C99.4282 53.2969 79.0181 73.9993 79.0181 99.2978Z" fill="#FFFF00" stroke="#000008" stroke-width="0.211055" stroke-linecap="round" stroke-linejoin="round"/>
<path fill-rule="evenodd" clip-rule="evenodd" d="M124.244 56.1712C147.452 56.1712 166.567 75.5612 166.567 99.2556C166.567 122.951 147.451 142.34 124.244 142.34C101.037 142.34 81.9205 122.951 81.9205 99.2556C81.9205 75.5612 101.037 56.1712 124.244 56.1712ZM82.9369 99.2553C82.9369 122.381 101.594 141.304 124.244 141.304C146.894 141.304 165.551 122.381 165.551 99.2553C165.551 76.1295 146.895 57.2059 124.244 57.2059C101.594 57.2059 82.9369 76.1295 82.9369 99.2553Z" fill="#FFFF00" stroke="#000008" stroke-width="0.211055" stroke-linecap="round" stroke-linejoin="round"/>
<path fill-rule="evenodd" clip-rule="evenodd" d="M126.106 52.072H122.146L122.151 146.578H126.124L126.106 52.072Z" fill="#FFFF00" stroke="#000008" stroke-width="0.211055" stroke-linecap="round" stroke-linejoin="round"/>
<path fill-rule="evenodd" clip-rule="evenodd" d="M125.709 51.5334H126.717L126.726 147.127H125.717L125.709 51.5334ZM121.779 51.5343H122.795L122.797 147.128H121.78V51.5343H121.779Z" fill="#FFFF00" stroke="#000008" stroke-width="0.211055" stroke-linecap="round" stroke-linejoin="round"/>
<path fill-rule="evenodd" clip-rule="evenodd" d="M170.444 101.118V97.6242L167.648 94.9737L151.782 90.6987L128.915 88.3237L101.382 89.7487L81.7817 94.4987L77.8243 97.4817V100.976L87.8483 96.3988L111.648 92.5988H134.515L151.315 94.4988L162.982 97.3488L170.444 101.118Z" fill="#FFFF00" stroke="#000008" stroke-width="0.211055" stroke-linecap="round" stroke-linejoin="round"/>
<path fill-rule="evenodd" clip-rule="evenodd" d="M124.225 92.015C135.137 91.9944 145.725 93.0673 154.122 94.7317C162.788 96.4949 168.886 98.7006 170.971 101.178L170.969 102.405C168.454 99.3217 160.248 97.0617 153.927 95.7697C145.593 94.1195 135.077 93.0542 124.225 93.0747C112.774 93.0965 102.111 94.2004 93.8994 95.8313C87.3101 97.1622 78.5223 99.806 77.4252 102.414V101.137C78.0277 99.3314 84.5712 96.6339 93.751 94.7635C102.025 93.1213 112.707 92.0363 124.225 92.015ZM124.23 87.9812C135.142 87.9611 145.729 89.0343 154.127 90.6979C162.792 92.462 168.891 94.6668 170.976 97.1441L170.974 98.3707C168.459 95.2887 160.253 93.0284 153.932 91.7369C145.598 90.0859 135.082 89.0206 124.23 89.0419C112.779 89.0628 102.168 90.1676 93.955 91.7976C87.5962 93.0246 78.4495 95.7731 77.4294 98.3811V97.1029C78.0319 95.3175 84.708 92.5233 93.7557 90.7299C102.029 89.0877 112.712 88.0034 124.23 87.9812Z" fill="#FFFF00" stroke="#000008" stroke-width="0.211055" stroke-linecap="round" stroke-linejoin="round"/>
<path fill-rule="evenodd" clip-rule="evenodd" d="M124.006 67.405C141.202 67.3174 156.201 69.8523 163.063 73.4304L165.567 77.8379C159.602 74.5661 143.42 71.1642 124.031 71.6729C108.232 71.7717 91.3516 73.4432 82.8821 78.0426L85.8704 72.9558C92.8214 69.2869 109.214 67.4254 124.006 67.406" fill="#FFFF00"/>
<path d="M124.006 67.405C141.202 67.3174 156.201 69.8523 163.063 73.4304L165.567 77.8379C159.602 74.5661 143.42 71.1642 124.031 71.6729C108.232 71.7717 91.3516 73.4432 82.8821 78.0426L85.8704 72.9558C92.8214 69.2869 109.214 67.4254 124.006 67.406" stroke="#000008" stroke-width="0.211055" stroke-linecap="round" stroke-linejoin="round"/>
<path fill-rule="evenodd" clip-rule="evenodd" d="M124.235 71.0436C134.043 71.0172 143.52 71.5802 151.057 72.9643C158.076 74.294 164.77 76.2898 165.727 77.363L166.469 78.6977C164.141 77.1507 158.349 75.428 150.911 73.9924C143.441 72.5634 133.971 72.0901 124.218 72.116C113.147 72.0775 104.547 72.6724 97.1654 73.9824C89.359 75.4691 83.9429 77.5931 82.6068 78.6023L83.334 77.1913C85.9301 75.8432 90.0493 74.2182 96.9714 72.9497C104.605 71.5304 113.297 71.1048 124.235 71.0436L124.235 71.0436ZM124.231 67.0135C133.617 66.9884 142.884 67.5208 150.108 68.8426C155.806 69.9716 161.44 71.734 163.503 73.3024L164.589 75.0578C162.744 72.9703 155.799 70.9921 149.668 69.8841C142.499 68.6256 133.617 68.1275 124.23 68.0479C114.38 68.076 105.277 68.6901 98.2128 69.9993C91.4737 71.3046 87.1248 72.85 85.2848 74.0569L86.2392 72.5907C88.7785 71.23 92.8808 69.9804 98.0472 68.9586C105.163 67.6398 114.322 67.0416 124.231 67.0135Z" fill="#FFFF00" stroke="#000008" stroke-width="0.211055" stroke-linecap="round" stroke-linejoin="round"/>
<path fill-rule="evenodd" clip-rule="evenodd" d="M147.185 118.848C138.683 117.232 130.166 116.998 124.217 117.069C95.5603 117.411 86.303 123.058 85.1732 124.768L83.0315 121.214C90.3274 115.832 105.932 112.813 124.372 113.122C133.947 113.281 142.21 113.929 149.161 115.299L147.184 118.848" fill="#FFFF00"/>
<path d="M147.185 118.848C138.683 117.232 130.166 116.998 124.217 117.069C95.5603 117.411 86.303 123.058 85.1732 124.768L83.0315 121.214C90.3274 115.832 105.932 112.813 124.372 113.122C133.947 113.281 142.21 113.929 149.161 115.299L147.184 118.848" stroke="#000008" stroke-width="0.211055" stroke-linecap="round" stroke-linejoin="round"/>
<path fill-rule="evenodd" clip-rule="evenodd" d="M124.053 116.567C132.025 116.689 139.849 117.024 147.402 118.457L146.855 119.44C139.84 118.122 132.362 117.618 124.08 117.659C113.504 117.575 102.807 118.58 93.4943 121.3C90.5558 122.133 85.6912 124.056 85.1951 125.645L84.651 124.731C84.8078 123.792 87.7479 121.843 93.2442 120.271C103.911 117.162 113.889 116.638 124.053 116.567L124.053 116.567ZM124.415 112.484C132.674 112.641 141.203 113.03 149.493 114.702L148.924 115.725C141.438 114.212 134.285 113.707 124.463 113.554C113.854 113.573 102.6 114.343 92.3671 117.371C89.0635 118.351 83.3618 120.469 83.1719 122.145L82.6278 121.164C82.7517 119.641 87.6874 117.655 92.1282 116.34C102.44 113.289 113.723 112.504 124.415 112.484Z" fill="#FFFF00" stroke="#000008" stroke-width="0.202583" stroke-linecap="round" stroke-linejoin="round"/>
<path fill-rule="evenodd" clip-rule="evenodd" d="M165.119 121.755L161.676 127.193L151.782 118.249L126.115 100.674L97.1822 84.5241L82.1602 79.2944L85.3615 73.2524L86.4488 72.6491L95.7822 75.0241L126.582 91.1741L144.315 102.574L159.249 113.499L165.315 120.624L165.119 121.755Z" fill="#FFFF00" stroke="#000008" stroke-width="0.211055" stroke-linecap="round" stroke-linejoin="round"/>
<path fill-rule="evenodd" clip-rule="evenodd" d="M81.6183 79.4369C84.2531 77.6179 103.616 86.398 123.877 98.833C144.084 111.304 163.393 125.396 161.65 128.033L161.077 128.951L160.814 129.162C160.87 129.121 161.161 128.759 160.786 127.781C159.925 124.898 146.228 113.773 123.502 99.8062C101.347 86.3595 82.8825 78.255 81.0364 80.5716L81.6183 79.4369ZM165.824 121.677C167.49 118.328 149.529 104.556 127.262 91.148C104.483 78.0067 88.0648 70.2713 85.066 72.5779L84.3997 73.8125C84.3939 73.8803 84.424 73.7283 84.5647 73.6177C85.11 73.1334 86.0138 73.1661 86.4217 73.1585C91.5854 73.2373 106.333 80.1453 127.024 92.2193C136.091 97.5939 165.324 116.678 165.213 122.044C165.221 122.505 165.25 122.6 165.08 122.829L165.824 121.677Z" fill="#FFFF00"/>
<path d="M165.824 121.677C167.49 118.328 149.529 104.556 127.262 91.148C104.483 78.0067 88.0648 70.2713 85.066 72.5779L84.3997 73.8125C84.3939 73.8803 84.424 73.7283 84.5647 73.6177C85.11 73.1334 86.0138 73.1661 86.4217 73.1585C91.5854 73.2373 106.333 80.1453 127.024 92.2193C136.091 97.5939 165.324 116.678 165.213 122.044C165.221 122.505 165.25 122.6 165.08 122.829L165.824 121.677ZM165.824 121.677L165.824 121.677M81.6183 79.4369C84.2531 77.6179 103.616 86.398 123.877 98.833C144.084 111.304 163.393 125.396 161.65 128.033L161.077 128.951L160.814 129.162C160.87 129.121 161.161 128.759 160.786 127.781C159.925 124.898 146.228 113.773 123.502 99.8062C101.347 86.3595 82.8825 78.255 81.0364 80.5716L81.6183 79.4369Z" stroke="#000008" stroke-width="0.211055" stroke-linecap="round" stroke-linejoin="round"/>
<path d="M96.5296 104.478C96.5296 112.207 99.6389 119.197 104.676 124.305C109.723 129.425 116.582 132.656 124.187 132.656C131.832 132.656 138.769 129.496 143.795 124.396C148.82 119.297 151.935 112.259 151.936 104.503H151.935V66.888L96.5231 66.8209L96.5288 104.478L96.5296 104.478Z" fill="white" stroke="#000008" stroke-width="0.24692"/>
<path d="M97.5656 104.53V104.552C97.5656 111.941 100.572 118.671 105.394 123.556C110.226 128.451 116.88 131.494 124.16 131.494C131.478 131.494 138.119 128.473 142.931 123.597C147.741 118.721 150.723 111.991 150.724 104.576H150.723V68.0835L97.5973 68.0747L97.5648 104.53M140.042 79.0002L140.044 102.223L140.024 104.68C140.024 105.326 139.986 106.063 139.912 106.691C139.481 110.362 137.822 113.563 135.365 116.052C132.488 118.967 128.518 120.774 124.143 120.774C119.79 120.774 115.911 118.904 113.023 115.977C110.059 112.975 108.342 108.858 108.342 104.602L108.336 78.941L140.041 78.9992L140.042 79.0002Z" fill="#FF0000"/>
<path d="M97.5656 104.53V104.552C97.5656 111.941 100.572 118.671 105.394 123.556C110.226 128.451 116.88 131.494 124.16 131.494C131.478 131.494 138.119 128.473 142.931 123.597C147.741 118.721 150.723 111.991 150.724 104.576H150.723V68.0835L97.5973 68.0747L97.5648 104.53M140.042 79.0002L140.044 102.223L140.024 104.68C140.024 105.326 139.986 106.063 139.912 106.691C139.481 110.362 137.822 113.563 135.365 116.052C132.488 118.967 128.518 120.774 124.143 120.774C119.79 120.774 115.911 118.904 113.023 115.977C110.059 112.975 108.342 108.858 108.342 104.602L108.336 78.941L140.041 78.9992L140.042 79.0002Z" stroke="#000008" stroke-width="0.18687"/>
<path d="M101.007 77.6016C101.07 74.9792 102.898 74.3583 102.911 74.3491C102.925 74.3403 104.886 75.0177 104.879 77.626L101.007 77.6016Z" fill="#FFFF00"/>
<path d="M99.4303 74.4003L99.1122 77.414L101.044 77.4183C101.063 74.9249 102.899 74.5101 102.943 74.5193C102.985 74.5169 104.805 75.0706 104.853 77.4183H106.791L106.441 74.3815L99.4305 74.3995L99.4303 74.4003Z" fill="#FFFF00" stroke="#000008" stroke-width="0.184167"/>
<path d="M98.9821 77.4259H106.89C107.057 77.4259 107.193 77.5934 107.193 77.7983C107.193 78.0027 107.057 78.1695 106.89 78.1695H98.9821C98.8154 78.1695 98.6792 78.0027 98.6792 77.7983C98.6792 77.5934 98.8154 77.4259 98.9821 77.4259Z" fill="#FFFF00" stroke="#000008" stroke-width="0.184167"/>
<path d="M101.857 77.4116C101.865 75.8381 102.912 75.3928 102.918 75.3937C102.918 75.3937 104.011 75.8528 104.019 77.4116H101.857Z" fill="#FFFF00" stroke="#000008" stroke-width="0.184167"/>
<path d="M99.1502 73.1462H106.731C106.891 73.1462 107.022 73.2975 107.022 73.481C107.022 73.6649 106.891 73.8157 106.731 73.8157H99.1502C98.9905 73.8157 98.8596 73.6657 98.8596 73.481C98.8596 73.2975 98.9905 73.1462 99.1502 73.1462Z" fill="#FFFF00" stroke="#000008" stroke-width="0.184167"/>
<path d="M99.3088 73.8207H106.56C106.713 73.8207 106.838 73.9711 106.838 74.155C106.838 74.3393 106.713 74.4897 106.56 74.4897H99.3088C99.1561 74.4897 99.031 74.3393 99.031 74.155C99.031 73.9711 99.1561 73.8207 99.3088 73.8207Z" fill="#FFFF00" stroke="#000008" stroke-width="0.184167"/>
<path d="M101.651 68.7904L102.224 68.7914V69.2053H102.641V68.7822L103.228 68.7841V69.2055H103.647V68.7824H104.234L104.233 69.7379C104.233 69.8879 104.114 69.9851 103.977 69.9851H101.918C101.78 69.9851 101.652 69.8724 101.652 69.735L101.651 68.7908L101.651 68.7904Z" fill="#FFFF00" stroke="#000008" stroke-width="0.184167"/>
<path d="M103.807 70.0681L103.937 73.1325L101.929 73.125L102.062 70.0601L103.807 70.0681Z" fill="#FFFF00" stroke="#000008" stroke-width="0.184167"/>
<path d="M101.357 71.4884L101.418 73.1402L99.4932 73.1411L99.5475 71.4885L101.357 71.4884Z" fill="#FFFF00" stroke="#000008" stroke-width="0.184167"/>
<path d="M106.308 71.4884L106.369 73.1402L104.444 73.1411L104.499 71.4885L106.308 71.4884Z" fill="#FFFF00" stroke="#000008" stroke-width="0.184167"/>
<path d="M99.1921 70.2914L99.7518 70.2929V70.7072H100.161V70.2832L100.735 70.2851V70.7074H101.145V70.2835L101.719 70.2844L101.719 71.24C101.719 71.3891 101.602 71.4863 101.468 71.4863H99.4537C99.3187 71.4863 99.1932 71.3744 99.1928 71.2366L99.1914 70.2919L99.1921 70.2914Z" fill="#FFFF00" stroke="#000008" stroke-width="0.184167"/>
<path d="M104.143 70.2914L104.703 70.2929V70.7072H105.112V70.2832L105.686 70.2851V70.7074H106.096V70.2835L106.67 70.2844L106.67 71.24C106.67 71.3891 106.554 71.4863 106.419 71.4863H104.405C104.27 71.4863 104.144 71.3744 104.144 71.2366L104.142 70.2919L104.143 70.2914Z" fill="#FFFF00" stroke="#000008" stroke-width="0.184167"/>
<path d="M102.739 71.0371C102.727 70.7393 103.148 70.7359 103.143 71.0371V71.7669H102.739L102.739 71.0371Z" fill="#000008"/>
<path d="M100.251 72.0965C100.25 71.8087 100.642 71.8029 100.637 72.0965V72.6604H100.252L100.251 72.0965Z" fill="#000008"/>
<path d="M105.217 72.0965C105.216 71.8087 105.608 71.8029 105.603 72.0965V72.6604H105.217L105.217 72.0965Z" fill="#000008"/>
<path d="M101.007 99.6039C101.07 96.9814 102.898 96.3606 102.911 96.3513C102.925 96.3426 104.886 97.02 104.879 99.6282L101.007 99.6039Z" fill="#FFFF00"/>
<path d="M99.4303 96.4025L99.1122 99.4162L101.044 99.4205C101.063 96.9271 102.899 96.5123 102.943 96.5215C102.985 96.5192 104.805 97.0728 104.853 99.4205H106.791L106.441 96.3837L99.4305 96.4017L99.4303 96.4025Z" fill="#FFFF00" stroke="#000008" stroke-width="0.184167"/>
<path d="M98.9821 99.428H106.89C107.057 99.428 107.193 99.5956 107.193 99.8005C107.193 100.005 107.057 100.172 106.89 100.172H98.9821C98.8154 100.172 98.6792 100.005 98.6792 99.8005C98.6792 99.5956 98.8154 99.428 98.9821 99.428Z" fill="#FFFF00" stroke="#000008" stroke-width="0.184167"/>
<path d="M101.857 99.4138C101.865 97.8403 102.912 97.395 102.918 97.3959C102.918 97.3959 104.011 97.855 104.019 99.4138H101.857Z" fill="#FFFF00" stroke="#000008" stroke-width="0.184167"/>
<path d="M99.1502 95.1484H106.731C106.891 95.1484 107.022 95.2997 107.022 95.4832C107.022 95.6671 106.891 95.8179 106.731 95.8179H99.1502C98.9905 95.8179 98.8596 95.6679 98.8596 95.4832C98.8596 95.2997 98.9905 95.1484 99.1502 95.1484Z" fill="#FFFF00" stroke="#000008" stroke-width="0.184167"/>
<path d="M99.3088 95.8229H106.56C106.713 95.8229 106.838 95.9733 106.838 96.1572C106.838 96.3415 106.713 96.4919 106.56 96.4919H99.3088C99.1561 96.4919 99.031 96.3415 99.031 96.1572C99.031 95.9733 99.1561 95.8229 99.3088 95.8229Z" fill="#FFFF00" stroke="#000008" stroke-width="0.184167"/>
<path d="M101.651 90.7926L102.224 90.7936V91.2075H102.641V90.7844L103.228 90.7863V91.2077H103.647V90.7846H104.234L104.233 91.7401C104.233 91.8901 104.114 91.9873 103.977 91.9873H101.918C101.78 91.9873 101.652 91.8746 101.652 91.7372L101.651 90.793L101.651 90.7926Z" fill="#FFFF00" stroke="#000008" stroke-width="0.184167"/>
<path d="M103.807 92.0703L103.937 95.1347L101.929 95.1272L102.062 92.0623L103.807 92.0703Z" fill="#FFFF00" stroke="#000008" stroke-width="0.184167"/>
<path d="M101.357 93.4905L101.418 95.1424L99.4932 95.1433L99.5475 93.4906L101.357 93.4905Z" fill="#FFFF00" stroke="#000008" stroke-width="0.184167"/>
<path d="M106.308 93.4905L106.369 95.1424L104.444 95.1433L104.499 93.4906L106.308 93.4905Z" fill="#FFFF00" stroke="#000008" stroke-width="0.184167"/>
<path d="M99.1921 92.2937L99.7518 92.2951V92.7094H100.161V92.2855L100.735 92.2874V92.7096H101.145V92.2857L101.719 92.2866L101.719 93.2422C101.719 93.3913 101.602 93.4885 101.468 93.4885H99.4537C99.3187 93.4885 99.1932 93.3767 99.1928 93.2388L99.1914 92.2942L99.1921 92.2937Z" fill="#FFFF00" stroke="#000008" stroke-width="0.184167"/>
<path d="M104.143 92.2937L104.703 92.2951V92.7094H105.112V92.2855L105.686 92.2874V92.7096H106.096V92.2857L106.67 92.2866L106.67 93.2422C106.67 93.3913 106.554 93.4885 106.419 93.4885H104.405C104.27 93.4885 104.144 93.3767 104.144 93.2388L104.142 92.2942L104.143 92.2937Z" fill="#FFFF00" stroke="#000008" stroke-width="0.184167"/>
<path d="M102.739 93.0393C102.727 92.7415 103.148 92.7381 103.143 93.0393V93.7691H102.739L102.739 93.0393Z" fill="#000008"/>
<path d="M100.251 94.0987C100.25 93.8109 100.642 93.8051 100.637 94.0987V94.6626H100.252L100.251 94.0987Z" fill="#000008"/>
<path d="M105.217 94.0987C105.216 93.8109 105.608 93.8051 105.603 94.0987V94.6626H105.217L105.217 94.0987Z" fill="#000008"/>
<path d="M109.434 122.506C107.65 120.613 108.506 118.855 108.509 118.839C108.512 118.823 110.366 117.884 112.18 119.726L109.434 122.506Z" fill="#FFFF00"/>
<path d="M106.091 121.389L107.968 123.742L109.332 122.35C107.607 120.579 108.611 118.961 108.649 118.936C108.677 118.904 110.345 117.98 112.016 119.599L113.381 118.2L111.017 116.313L106.09 121.388L106.091 121.389Z" fill="#FFFF00" stroke="#000008" stroke-width="0.184167"/>
<path d="M107.884 123.845L113.456 118.133C113.574 118.013 113.787 118.033 113.929 118.177C114.072 118.321 114.092 118.537 113.975 118.657L108.403 124.369C108.285 124.489 108.073 124.47 107.93 124.326C107.788 124.182 107.767 123.965 107.884 123.845Z" fill="#FFFF00" stroke="#000008" stroke-width="0.184167"/>
<path d="M109.9 121.758C108.809 120.643 109.236 119.573 109.24 119.57C109.241 119.57 110.331 119.104 111.424 120.196L109.9 121.758Z" fill="#FFFF00" stroke="#000008" stroke-width="0.184167"/>
<path d="M105.019 120.708L110.361 115.232C110.473 115.117 110.671 115.129 110.799 115.258C110.927 115.388 110.94 115.589 110.827 115.704L105.486 121.18C105.373 121.295 105.177 121.284 105.048 121.154C104.92 121.024 104.907 120.823 105.019 120.708Z" fill="#FFFF00" stroke="#000008" stroke-width="0.184167"/>
<path d="M105.602 121.069L110.711 115.832C110.818 115.721 111.011 115.737 111.14 115.867C111.268 115.996 111.285 116.193 111.177 116.303L106.068 121.54C105.96 121.65 105.767 121.635 105.639 121.505C105.511 121.375 105.494 121.179 105.602 121.069Z" fill="#FFFF00" stroke="#000008" stroke-width="0.184167"/>
<path d="M103.745 115.832L104.149 115.419L104.438 115.711L104.732 115.409L104.437 115.111L104.851 114.689L105.145 114.986L105.44 114.683L105.146 114.385L105.559 113.961L106.225 114.635C106.329 114.741 106.313 114.895 106.217 114.994L104.766 116.481C104.669 116.581 104.5 116.594 104.404 116.497L103.745 115.833L103.745 115.832Z" fill="#FFFF00" stroke="#000008" stroke-width="0.184167"/>
<path d="M106.155 115.175L108.383 117.241L106.963 118.686L104.92 116.431L106.155 115.175Z" fill="#FFFF00" stroke="#000008" stroke-width="0.184167"/>
<path d="M105.419 117.946L106.613 119.065L105.258 120.457L104.144 119.253L105.419 117.946Z" fill="#FFFF00" stroke="#000008" stroke-width="0.184167"/>
<path d="M108.908 114.37L110.102 115.489L108.747 116.881L107.633 115.677L108.908 114.37Z" fill="#FFFF00" stroke="#000008" stroke-width="0.184167"/>
<path d="M103.059 118.666L103.454 118.263L103.743 118.555L104.031 118.259L103.736 117.961L104.141 117.548L104.436 117.845L104.725 117.549L104.429 117.25L104.835 116.836L105.5 117.51C105.604 117.615 105.59 117.767 105.496 117.864L104.076 119.319C103.981 119.417 103.815 119.429 103.718 119.332L103.059 118.667L103.059 118.666Z" fill="#FFFF00" stroke="#000008" stroke-width="0.184167"/>
<path d="M106.547 115.09L106.942 114.687L107.231 114.979L107.52 114.683L107.224 114.385L107.63 113.972L107.924 114.269L108.213 113.973L107.918 113.674L108.323 113.26L108.988 113.934C109.092 114.039 109.078 114.191 108.984 114.288L107.564 115.743C107.469 115.841 107.303 115.853 107.206 115.756L106.547 115.091L106.547 115.09Z" fill="#FFFF00" stroke="#000008" stroke-width="0.184167"/>
<path d="M106.078 116.63C105.861 116.429 106.156 116.122 106.363 116.338L106.872 116.853L106.587 117.145L106.078 116.63Z" fill="#000008"/>
<path d="M105.064 119.173C104.862 118.971 105.135 118.684 105.336 118.894L105.73 119.292L105.458 119.571L105.064 119.173Z" fill="#000008"/>
<path d="M108.562 115.586C108.36 115.384 108.633 115.097 108.834 115.308L109.228 115.705L108.956 115.984L108.562 115.586Z" fill="#000008"/>
<path d="M122.338 77.6021C122.401 74.9796 124.229 74.3588 124.242 74.3496C124.256 74.3408 126.217 75.0182 126.21 77.6264L122.338 77.6021Z" fill="#FFFF00"/>
<path d="M120.761 74.4007L120.443 77.4145L122.376 77.4187C122.394 74.9253 124.23 74.5105 124.274 74.5198C124.316 74.5174 126.136 75.071 126.184 77.4187H128.122L127.772 74.382L120.762 74.4L120.761 74.4007Z" fill="#FFFF00" stroke="#000008" stroke-width="0.184167"/>
<path d="M120.313 77.4263H128.221C128.388 77.4263 128.524 77.5939 128.524 77.7988C128.524 78.0032 128.388 78.1699 128.221 78.1699H120.313C120.146 78.1699 120.01 78.0032 120.01 77.7988C120.01 77.5939 120.146 77.4263 120.313 77.4263Z" fill="#FFFF00" stroke="#000008" stroke-width="0.184167"/>
<path d="M123.188 77.4121C123.196 75.8386 124.243 75.3933 124.249 75.3941C124.249 75.3941 125.342 75.8533 125.35 77.4121H123.188Z" fill="#FFFF00" stroke="#000008" stroke-width="0.184167"/>
<path d="M120.481 73.1467H128.062C128.222 73.1467 128.353 73.2979 128.353 73.4814C128.353 73.6653 128.222 73.8161 128.062 73.8161H120.481C120.322 73.8161 120.191 73.6662 120.191 73.4814C120.191 73.2979 120.322 73.1467 120.481 73.1467Z" fill="#FFFF00" stroke="#000008" stroke-width="0.184167"/>
<path d="M120.64 73.8211H127.891C128.044 73.8211 128.169 73.9715 128.169 74.1554C128.169 74.3398 128.044 74.4902 127.891 74.4902H120.64C120.487 74.4902 120.362 74.3398 120.362 74.1554C120.362 73.9715 120.487 73.8211 120.64 73.8211Z" fill="#FFFF00" stroke="#000008" stroke-width="0.184167"/>
<path d="M122.982 68.7909L123.555 68.7918V69.2057H123.972V68.7826L124.559 68.7845V69.206H124.978V68.7828H125.565L125.564 69.7384C125.564 69.8884 125.445 69.9856 125.308 69.9856H123.249C123.111 69.9856 122.983 69.8729 122.983 69.7355L122.982 68.7912L122.982 68.7909Z" fill="#FFFF00" stroke="#000008" stroke-width="0.184167"/>
<path d="M125.138 70.0686L125.268 73.133L123.26 73.1254L123.393 70.0606L125.138 70.0686Z" fill="#FFFF00" stroke="#000008" stroke-width="0.184167"/>
<path d="M122.688 71.4888L122.749 73.1406L120.824 73.1416L120.879 71.4889L122.688 71.4888Z" fill="#FFFF00" stroke="#000008" stroke-width="0.184167"/>
<path d="M127.639 71.4888L127.701 73.1406L125.775 73.1416L125.83 71.4889L127.639 71.4888Z" fill="#FFFF00" stroke="#000008" stroke-width="0.184167"/>
<path d="M120.523 70.2919L121.083 70.2933V70.7076H121.492V70.2837L122.066 70.2856V70.7079H122.476V70.2839L123.051 70.2849L123.05 71.2404C123.05 71.3896 122.934 71.4868 122.799 71.4868H120.785C120.65 71.4868 120.524 71.3749 120.524 71.2371L120.522 70.2924L120.523 70.2919Z" fill="#FFFF00" stroke="#000008" stroke-width="0.184167"/>
<path d="M125.474 70.2919L126.034 70.2933V70.7076H126.443V70.2837L127.017 70.2856V70.7079H127.427V70.2839L128.002 70.2849L128.001 71.2404C128.001 71.3896 127.885 71.4868 127.75 71.4868H125.736C125.601 71.4868 125.475 71.3749 125.475 71.2371L125.474 70.2924L125.474 70.2919Z" fill="#FFFF00" stroke="#000008" stroke-width="0.184167"/>
<path d="M124.07 71.0376C124.058 70.7398 124.479 70.7364 124.474 71.0376V71.7674H124.07L124.07 71.0376Z" fill="#000008"/>
<path d="M121.583 72.097C121.581 71.8092 121.973 71.8033 121.968 72.097V72.6609H121.583L121.583 72.097Z" fill="#000008"/>
<path d="M126.548 72.097C126.547 71.8092 126.939 71.8033 126.934 72.097V72.6609H126.548L126.548 72.097Z" fill="#000008"/>
<path d="M147.398 77.6016C147.335 74.9792 145.507 74.3583 145.494 74.3491C145.481 74.3403 143.519 75.0177 143.526 77.626L147.398 77.6016Z" fill="#FFFF00"/>
<path d="M148.975 74.4003L149.293 77.414L147.361 77.4183C147.342 74.9249 145.506 74.5101 145.462 74.5193C145.42 74.5169 143.601 75.0706 143.552 77.4183H141.615L141.965 74.3815L148.975 74.3995L148.975 74.4003Z" fill="#FFFF00" stroke="#000008" stroke-width="0.184167"/>
<path d="M149.423 77.4259H141.515C141.348 77.4259 141.212 77.5934 141.212 77.7983C141.212 78.0027 141.348 78.1695 141.515 78.1695H149.423C149.59 78.1695 149.726 78.0027 149.726 77.7983C149.726 77.5934 149.59 77.4259 149.423 77.4259Z" fill="#FFFF00" stroke="#000008" stroke-width="0.184167"/>
<path d="M146.549 77.4116C146.54 75.8381 145.493 75.3928 145.488 75.3937C145.487 75.3937 144.395 75.8528 144.386 77.4116H146.549Z" fill="#FFFF00" stroke="#000008" stroke-width="0.184167"/>
<path d="M149.255 73.1462H141.674C141.515 73.1462 141.384 73.2975 141.384 73.481C141.384 73.6649 141.515 73.8157 141.674 73.8157H149.255C149.415 73.8157 149.546 73.6657 149.546 73.481C149.546 73.2975 149.415 73.1462 149.255 73.1462Z" fill="#FFFF00" stroke="#000008" stroke-width="0.184167"/>
<path d="M149.097 73.8207H141.846C141.693 73.8207 141.568 73.9711 141.568 74.155C141.568 74.3393 141.693 74.4897 141.846 74.4897H149.097C149.249 74.4897 149.374 74.3393 149.374 74.155C149.374 73.9711 149.249 73.8207 149.097 73.8207Z" fill="#FFFF00" stroke="#000008" stroke-width="0.184167"/>
<path d="M146.754 68.7904L146.182 68.7914V69.2053H145.764V68.7822L145.178 68.7841V69.2055H144.759V68.7824H144.172L144.173 69.7379C144.173 69.8879 144.291 69.9851 144.429 69.9851H146.487C146.625 69.9851 146.753 69.8724 146.753 69.735L146.755 68.7908L146.754 68.7904Z" fill="#FFFF00" stroke="#000008" stroke-width="0.184167"/>
<path d="M144.598 70.0681L144.469 73.1325L146.477 73.125L146.344 70.0601L144.598 70.0681Z" fill="#FFFF00" stroke="#000008" stroke-width="0.184167"/>
<path d="M147.048 71.4884L146.987 73.1402L148.912 73.1411L148.858 71.4885L147.048 71.4884Z" fill="#FFFF00" stroke="#000008" stroke-width="0.184167"/>
<path d="M142.097 71.4884L142.036 73.1402L143.961 73.1411L143.907 71.4885L142.097 71.4884Z" fill="#FFFF00" stroke="#000008" stroke-width="0.184167"/>
<path d="M149.213 70.2914L148.654 70.2929V70.7072H148.244V70.2832L147.67 70.2851V70.7074H147.26V70.2835L146.686 70.2844L146.687 71.24C146.687 71.3891 146.803 71.4863 146.937 71.4863H148.952C149.087 71.4863 149.212 71.3744 149.213 71.2366L149.214 70.2919L149.213 70.2914Z" fill="#FFFF00" stroke="#000008" stroke-width="0.184167"/>
<path d="M144.262 70.2914L143.703 70.2929V70.7072H143.293V70.2832L142.719 70.2851V70.7074H142.309V70.2835L141.735 70.2844L141.736 71.24C141.736 71.3891 141.852 71.4863 141.986 71.4863H144.001C144.136 71.4863 144.261 71.3744 144.262 71.2366L144.263 70.2919L144.262 70.2914Z" fill="#FFFF00" stroke="#000008" stroke-width="0.184167"/>
<path d="M145.666 71.0371C145.679 70.7393 145.257 70.7359 145.262 71.0371V71.7669H145.666L145.666 71.0371Z" fill="#000008"/>
<path d="M148.154 72.0965C148.155 71.8087 147.763 71.8029 147.768 72.0965V72.6604H148.154L148.154 72.0965Z" fill="#000008"/>
<path d="M143.188 72.0965C143.19 71.8087 142.798 71.8029 142.803 72.0965V72.6604H143.188L143.188 72.0965Z" fill="#000008"/>
<path d="M147.398 99.6039C147.335 96.9814 145.507 96.3606 145.494 96.3513C145.481 96.3426 143.519 97.02 143.526 99.6282L147.398 99.6039Z" fill="#FFFF00"/>
<path d="M148.975 96.4025L149.293 99.4162L147.361 99.4205C147.343 96.9271 145.507 96.5123 145.462 96.5215C145.421 96.5192 143.601 97.0728 143.552 99.4205H141.615L141.965 96.3837L148.975 96.4017L148.975 96.4025Z" fill="#FFFF00" stroke="#000008" stroke-width="0.184167"/>
<path d="M149.423 99.4281H141.515C141.348 99.4281 141.212 99.5957 141.212 99.8005C141.212 100.005 141.348 100.172 141.515 100.172H149.423C149.59 100.172 149.726 100.005 149.726 99.8005C149.726 99.5957 149.59 99.4281 149.423 99.4281Z" fill="#FFFF00" stroke="#000008" stroke-width="0.184167"/>
<path d="M146.549 99.4138C146.54 97.8403 145.493 97.395 145.488 97.3959C145.488 97.3959 144.395 97.855 144.386 99.4138H146.549Z" fill="#FFFF00" stroke="#000008" stroke-width="0.184167"/>
<path d="M149.255 95.1484H141.674C141.515 95.1484 141.384 95.2997 141.384 95.4832C141.384 95.6671 141.515 95.8179 141.674 95.8179H149.255C149.415 95.8179 149.546 95.6679 149.546 95.4832C149.546 95.2997 149.415 95.1484 149.255 95.1484Z" fill="#FFFF00" stroke="#000008" stroke-width="0.184167"/>
<path d="M149.097 95.8229H141.846C141.693 95.8229 141.568 95.9733 141.568 96.1572C141.568 96.3415 141.693 96.4919 141.846 96.4919H149.097C149.249 96.4919 149.374 96.3415 149.374 96.1572C149.374 95.9733 149.249 95.8229 149.097 95.8229Z" fill="#FFFF00" stroke="#000008" stroke-width="0.184167"/>
<path d="M146.754 90.7926L146.182 90.7936V91.2075H145.764V90.7844L145.178 90.7863V91.2077H144.759V90.7846H144.172L144.173 91.7401C144.173 91.8901 144.291 91.9873 144.429 91.9873H146.487C146.625 91.9873 146.753 91.8746 146.753 91.7372L146.755 90.793L146.754 90.7926Z" fill="#FFFF00" stroke="#000008" stroke-width="0.184167"/>
<path d="M144.598 92.0703L144.469 95.1347L146.477 95.1272L146.344 92.0623L144.598 92.0703Z" fill="#FFFF00" stroke="#000008" stroke-width="0.184167"/>
<path d="M147.048 93.4906L146.987 95.1424L148.912 95.1434L148.858 93.4907L147.048 93.4906Z" fill="#FFFF00" stroke="#000008" stroke-width="0.184167"/>
<path d="M142.097 93.4906L142.036 95.1424L143.961 95.1434L143.907 93.4907L142.097 93.4906Z" fill="#FFFF00" stroke="#000008" stroke-width="0.184167"/>
<path d="M149.213 92.2937L148.654 92.2951V92.7094H148.244V92.2855L147.67 92.2874V92.7096H147.26V92.2857L146.686 92.2866L146.687 93.2422C146.687 93.3913 146.803 93.4885 146.937 93.4885H148.952C149.087 93.4885 149.212 93.3767 149.213 93.2388L149.214 92.2942L149.213 92.2937Z" fill="#FFFF00" stroke="#000008" stroke-width="0.184167"/>
<path d="M144.262 92.2937L143.703 92.2951V92.7094H143.293V92.2855L142.719 92.2874V92.7096H142.309V92.2857L141.735 92.2866L141.736 93.2422C141.736 93.3913 141.852 93.4885 141.986 93.4885H144.001C144.136 93.4885 144.261 93.3767 144.262 93.2388L144.263 92.2942L144.262 92.2937Z" fill="#FFFF00" stroke="#000008" stroke-width="0.184167"/>
<path d="M145.666 93.0393C145.679 92.7415 145.257 92.7381 145.262 93.0393V93.7691H145.666L145.666 93.0393Z" fill="#000008"/>
<path d="M148.154 94.0987C148.155 93.8109 147.763 93.8051 147.768 94.0987V94.6626H148.154L148.154 94.0987Z" fill="#000008"/>
<path d="M143.188 94.0987C143.19 93.8109 142.798 93.8051 142.803 94.0987V94.6626H143.188L143.188 94.0987Z" fill="#000008"/>
<path d="M138.969 122.506C140.753 120.613 139.897 118.855 139.894 118.839C139.891 118.823 138.037 117.884 136.223 119.726L138.969 122.506Z" fill="#FFFF00"/>
<path d="M142.312 121.389L140.435 123.742L139.071 122.35C140.796 120.579 139.792 118.961 139.754 118.936C139.726 118.904 138.058 117.98 136.387 119.599L135.022 118.2L137.386 116.313L142.313 121.388L142.312 121.389Z" fill="#FFFF00" stroke="#000008" stroke-width="0.184167"/>
<path d="M140.519 123.845L134.947 118.133C134.829 118.013 134.616 118.033 134.474 118.177C134.331 118.321 134.311 118.537 134.428 118.657L140 124.369C140.118 124.489 140.33 124.47 140.473 124.326C140.615 124.182 140.636 123.965 140.519 123.845Z" fill="#FFFF00" stroke="#000008" stroke-width="0.184167"/>
<path d="M138.503 121.758C139.594 120.643 139.167 119.573 139.162 119.57C139.162 119.57 138.072 119.104 136.979 120.196L138.503 121.758Z" fill="#FFFF00" stroke="#000008" stroke-width="0.184167"/>
<path d="M143.384 120.708L138.042 115.232C137.93 115.117 137.732 115.129 137.604 115.258C137.476 115.388 137.463 115.589 137.576 115.704L142.917 121.18C143.03 121.295 143.226 121.284 143.355 121.154C143.483 121.024 143.496 120.823 143.384 120.708Z" fill="#FFFF00" stroke="#000008" stroke-width="0.184167"/>
<path d="M142.801 121.069L137.692 115.832C137.585 115.721 137.392 115.737 137.263 115.867C137.135 115.996 137.118 116.193 137.226 116.303L142.335 121.54C142.442 121.65 142.635 121.635 142.764 121.505C142.892 121.375 142.909 121.179 142.801 121.069Z" fill="#FFFF00" stroke="#000008" stroke-width="0.184167"/>
<path d="M144.658 115.832L144.254 115.419L143.965 115.711L143.671 115.409L143.966 115.111L143.551 114.689L143.258 114.986L142.962 114.683L143.257 114.385L142.844 113.961L142.178 114.635C142.074 114.741 142.09 114.895 142.186 114.994L143.637 116.481C143.734 116.581 143.903 116.594 143.999 116.497L144.658 115.833L144.658 115.832Z" fill="#FFFF00" stroke="#000008" stroke-width="0.184167"/>
<path d="M142.248 115.175L140.02 117.241L141.44 118.686L143.483 116.431L142.248 115.175Z" fill="#FFFF00" stroke="#000008" stroke-width="0.184167"/>
<path d="M142.984 117.946L141.79 119.065L143.145 120.457L144.259 119.253L142.984 117.946Z" fill="#FFFF00" stroke="#000008" stroke-width="0.184167"/>
<path d="M139.495 114.37L138.301 115.489L139.656 116.881L140.77 115.677L139.495 114.37Z" fill="#FFFF00" stroke="#000008" stroke-width="0.184167"/>
<path d="M145.344 118.666L144.949 118.263L144.66 118.555L144.371 118.259L144.667 117.961L144.262 117.548L143.967 117.845L143.678 117.549L143.974 117.25L143.568 116.836L142.903 117.51C142.799 117.615 142.813 117.767 142.907 117.864L144.327 119.319C144.422 119.417 144.588 119.429 144.685 119.332L145.344 118.667L145.344 118.666Z" fill="#FFFF00" stroke="#000008" stroke-width="0.184167"/>
<path d="M141.856 115.09L141.461 114.687L141.172 114.979L140.883 114.683L141.179 114.385L140.773 113.972L140.479 114.269L140.19 113.973L140.485 113.674L140.08 113.26L139.415 113.934C139.311 114.039 139.325 114.191 139.419 114.288L140.839 115.743C140.934 115.841 141.1 115.853 141.197 115.756L141.856 115.091L141.856 115.09Z" fill="#FFFF00" stroke="#000008" stroke-width="0.184167"/>
<path d="M142.325 116.63C142.542 116.429 142.247 116.122 142.04 116.338L141.531 116.853L141.816 117.145L142.325 116.63Z" fill="#000008"/>
<path d="M143.339 119.173C143.541 118.971 143.268 118.684 143.067 118.894L142.673 119.292L142.945 119.571L143.339 119.173Z" fill="#000008"/>
<path d="M139.841 115.586C140.043 115.384 139.77 115.097 139.569 115.308L139.175 115.705L139.447 115.984L139.841 115.586Z" fill="#000008"/>
<path d="M120.812 100.391V100.393C120.812 101.444 121.209 102.401 121.844 103.096C122.482 103.793 123.359 104.225 124.319 104.225C125.283 104.225 126.159 103.795 126.793 103.102C127.427 102.409 127.821 101.452 127.821 100.397V95.2827L120.825 95.2769L120.812 100.391Z" fill="#003399"/>
<path d="M122.417 97.928C122.8 97.928 123.11 97.612 123.11 97.2222C123.11 96.8323 122.8 96.5163 122.417 96.5163C122.034 96.5163 121.724 96.8323 121.724 97.2222C121.724 97.612 122.034 97.928 122.417 97.928Z" fill="white"/>
<path d="M126.299 97.9312C126.682 97.9312 126.992 97.6152 126.992 97.2254C126.992 96.8356 126.682 96.5195 126.299 96.5195C125.916 96.5195 125.605 96.8356 125.605 97.2254C125.605 97.6152 125.916 97.9312 126.299 97.9312Z" fill="white"/>
<path d="M124.354 99.828C124.737 99.828 125.047 99.512 125.047 99.1222C125.047 98.7323 124.737 98.4163 124.354 98.4163C123.971 98.4163 123.66 98.7323 123.66 99.1222C123.66 99.512 123.971 99.828 124.354 99.828Z" fill="white"/>
<path d="M122.417 101.814C122.8 101.814 123.11 101.498 123.11 101.108C123.11 100.719 122.8 100.403 122.417 100.403C122.034 100.403 121.724 100.719 121.724 101.108C121.724 101.498 122.034 101.814 122.417 101.814Z" fill="white"/>
<path d="M126.294 101.809C126.677 101.809 126.988 101.493 126.988 101.103C126.988 100.713 126.677 100.397 126.294 100.397C125.911 100.397 125.601 100.713 125.601 101.103C125.601 101.493 125.911 101.809 126.294 101.809Z" fill="white"/>
<path d="M120.812 88.0331V88.0355C120.812 89.0861 121.209 90.0434 121.844 90.7379C122.482 91.4346 123.359 91.8673 124.319 91.8673C125.283 91.8673 126.159 91.4375 126.793 90.7438C127.427 90.0509 127.821 89.0945 127.821 88.0396V82.9248L120.825 82.9189L120.812 88.0331Z" fill="#003399"/>
<path d="M122.417 85.5701C122.8 85.5701 123.11 85.2541 123.11 84.8642C123.11 84.4744 122.8 84.1584 122.417 84.1584C122.034 84.1584 121.724 84.4744 121.724 84.8642C121.724 85.2541 122.034 85.5701 122.417 85.5701Z" fill="white"/>
<path d="M126.299 85.5733C126.682 85.5733 126.992 85.2573 126.992 84.8675C126.992 84.4776 126.682 84.1616 126.299 84.1616C125.916 84.1616 125.605 84.4776 125.605 84.8675C125.605 85.2573 125.916 85.5733 126.299 85.5733Z" fill="white"/>
<path d="M124.354 87.4701C124.737 87.4701 125.047 87.1541 125.047 86.7643C125.047 86.3744 124.737 86.0584 124.354 86.0584C123.971 86.0584 123.66 86.3744 123.66 86.7643C123.66 87.1541 123.971 87.4701 124.354 87.4701Z" fill="white"/>
<path d="M122.417 89.4564C122.8 89.4564 123.11 89.1404 123.11 88.7505C123.11 88.3607 122.8 88.0447 122.417 88.0447C122.034 88.0447 121.724 88.3607 121.724 88.7505C121.724 89.1404 122.034 89.4564 122.417 89.4564Z" fill="white"/>
<path d="M126.294 89.4508C126.677 89.4508 126.988 89.1348 126.988 88.745C126.988 88.3551 126.677 88.0391 126.294 88.0391C125.911 88.0391 125.601 88.3551 125.601 88.745C125.601 89.1348 125.911 89.4508 126.294 89.4508Z" fill="white"/>
<path d="M111.108 100.391V100.393C111.108 101.444 111.504 102.401 112.14 103.096C112.777 103.793 113.654 104.225 114.614 104.225C115.579 104.225 116.455 103.795 117.089 103.102C117.723 102.409 118.116 101.452 118.116 100.397V95.2827L111.12 95.2769L111.108 100.391Z" fill="#003399"/>
<path d="M112.712 97.928C113.095 97.928 113.406 97.612 113.406 97.2222C113.406 96.8323 113.095 96.5163 112.712 96.5163C112.329 96.5163 112.019 96.8323 112.019 97.2222C112.019 97.612 112.329 97.928 112.712 97.928Z" fill="white"/>
<path d="M116.593 97.9312C116.976 97.9312 117.287 97.6152 117.287 97.2254C117.287 96.8356 116.976 96.5195 116.593 96.5195C116.21 96.5195 115.9 96.8356 115.9 97.2254C115.9 97.6152 116.21 97.9312 116.593 97.9312Z" fill="white"/>
<path d="M114.649 99.828C115.032 99.828 115.343 99.512 115.343 99.1222C115.343 98.7323 115.032 98.4163 114.649 98.4163C114.266 98.4163 113.956 98.7323 113.956 99.1222C113.956 99.512 114.266 99.828 114.649 99.828Z" fill="white"/>
<path d="M112.712 101.814C113.095 101.814 113.406 101.498 113.406 101.108C113.406 100.719 113.095 100.403 112.712 100.403C112.329 100.403 112.019 100.719 112.019 101.108C112.019 101.498 112.329 101.814 112.712 101.814Z" fill="white"/>
<path d="M116.59 101.809C116.973 101.809 117.283 101.493 117.283 101.103C117.283 100.713 116.973 100.397 116.59 100.397C116.207 100.397 115.896 100.713 115.896 101.103C115.896 101.493 116.207 101.809 116.59 101.809Z" fill="white"/>
<path d="M130.495 100.391V100.393C130.495 101.444 130.891 102.401 131.527 103.096C132.164 103.793 133.042 104.225 134.001 104.225C134.966 104.225 135.842 103.795 136.476 103.102C137.11 102.409 137.504 101.452 137.504 100.397V95.2827L130.507 95.2769L130.495 100.391Z" fill="#003399"/>
<path d="M132.1 97.928C132.483 97.928 132.793 97.612 132.793 97.2222C132.793 96.8323 132.483 96.5163 132.1 96.5163C131.717 96.5163 131.406 96.8323 131.406 97.2222C131.406 97.612 131.717 97.928 132.1 97.928Z" fill="white"/>
<path d="M135.981 97.9312C136.364 97.9312 136.675 97.6152 136.675 97.2254C136.675 96.8356 136.364 96.5195 135.981 96.5195C135.598 96.5195 135.288 96.8356 135.288 97.2254C135.288 97.6152 135.598 97.9312 135.981 97.9312Z" fill="white"/>
<path d="M134.036 99.828C134.419 99.828 134.73 99.512 134.73 99.1222C134.73 98.7323 134.419 98.4163 134.036 98.4163C133.653 98.4163 133.343 98.7323 133.343 99.1222C133.343 99.512 133.653 99.828 134.036 99.828Z" fill="white"/>
<path d="M132.1 101.814C132.483 101.814 132.793 101.498 132.793 101.108C132.793 100.719 132.483 100.403 132.1 100.403C131.717 100.403 131.406 100.719 131.406 101.108C131.406 101.498 131.717 101.814 132.1 101.814Z" fill="white"/>
<path d="M135.977 101.809C136.36 101.809 136.67 101.493 136.67 101.103C136.67 100.713 136.36 100.397 135.977 100.397C135.594 100.397 135.283 100.713 135.283 101.103C135.283 101.493 135.594 101.809 135.977 101.809Z" fill="white"/>
<path d="M120.812 112.639V112.641C120.812 113.692 121.209 114.649 121.844 115.343C122.482 116.04 123.359 116.473 124.319 116.473C125.283 116.473 126.159 116.043 126.793 115.349C127.427 114.656 127.821 113.7 127.821 112.645V107.53L120.825 107.524L120.812 112.639Z" fill="#003399"/>
<path d="M122.417 110.176C122.8 110.176 123.11 109.86 123.11 109.47C123.11 109.08 122.8 108.764 122.417 108.764C122.034 108.764 121.724 109.08 121.724 109.47C121.724 109.86 122.034 110.176 122.417 110.176Z" fill="white"/>
<path d="M126.299 110.179C126.682 110.179 126.992 109.863 126.992 109.473C126.992 109.083 126.682 108.767 126.299 108.767C125.916 108.767 125.605 109.083 125.605 109.473C125.605 109.863 125.916 110.179 126.299 110.179Z" fill="white"/>
<path d="M124.354 112.076C124.737 112.076 125.047 111.76 125.047 111.37C125.047 110.98 124.737 110.664 124.354 110.664C123.971 110.664 123.66 110.98 123.66 111.37C123.66 111.76 123.971 112.076 124.354 112.076Z" fill="white"/>
<path d="M122.417 114.062C122.8 114.062 123.11 113.746 123.11 113.356C123.11 112.966 122.8 112.65 122.417 112.65C122.034 112.65 121.724 112.966 121.724 113.356C121.724 113.746 122.034 114.062 122.417 114.062Z" fill="white"/>
<path d="M126.294 114.056C126.677 114.056 126.988 113.74 126.988 113.35C126.988 112.961 126.677 112.645 126.294 112.645C125.911 112.645 125.601 112.961 125.601 113.35C125.601 113.74 125.911 114.056 126.294 114.056Z" fill="white"/>
</g>
<rect x="12.2493" y="4.24921" width="280" height="190" stroke="#A8B7D4" stroke-width="0.498424" stroke-linejoin="round"/>
</g>
<defs>
<filter id="filter0_dd_1797_1262" x="0" y="0" width="304.499" height="214.498" filterUnits="userSpaceOnUse" color-interpolation-filters="sRGB">
<feFlood flood-opacity="0" result="BackgroundImageFix"/>
<feColorMatrix in="SourceAlpha" type="matrix" values="0 0 0 0 0 0 0 0 0 0 0 0 0 0 0 0 0 0 127 0" result="hardAlpha"/>
<feOffset dy="8"/>
<feGaussianBlur stdDeviation="6"/>
<feComposite in2="hardAlpha" operator="out"/>
<feColorMatrix type="matrix" values="0 0 0 0 0.258824 0 0 0 0 0.278431 0 0 0 0 0.298039 0 0 0 0.08 0"/>
<feBlend mode="normal" in2="BackgroundImageFix" result="effect1_dropShadow_1797_1262"/>
<feColorMatrix in="SourceAlpha" type="matrix" values="0 0 0 0 0 0 0 0 0 0 0 0 0 0 0 0 0 0 127 0" result="hardAlpha"/>
<feOffset/>
<feGaussianBlur stdDeviation="0.5"/>
<feComposite in2="hardAlpha" operator="out"/>
<feColorMatrix type="matrix" values="0 0 0 0 0.258824 0 0 0 0 0.278431 0 0 0 0 0.298039 0 0 0 0.32 0"/>
<feBlend mode="normal" in2="effect1_dropShadow_1797_1262" result="effect2_dropShadow_1797_1262"/>
<feBlend mode="normal" in="SourceGraphic" in2="effect2_dropShadow_1797_1262" result="shape"/>
</filter>
<clipPath id="clip0_1797_1262">
<rect x="12.2493" y="4.24921" width="280" height="190" fill="white"/>
</clipPath>
</defs>
</svg>
