<svg width="305" height="215" viewBox="0 0 305 215" fill="none" xmlns="http://www.w3.org/2000/svg">
<g filter="url(#filter0_dd_1797_889)">
<g clip-path="url(#clip0_1797_889)">
<rect x="12.2493" y="4.24921" width="280" height="190" fill="white"/>
<mask id="mask0_1797_889" style="mask-type:luminance" maskUnits="userSpaceOnUse" x="12" y="4" width="281" height="191">
<path d="M12.2493 4.24921V194.249H292.249V4.24921H12.2493Z" fill="white"/>
</mask>
<g mask="url(#mask0_1797_889)">
<path d="M12.2493 4.24921V194.249H292.249V4.24921H12.2493Z" fill="#012169"/>
<path d="M12.2493 4.24921L292.249 194.249ZM292.249 4.24921L12.2493 194.249Z" fill="#000008"/>
<path d="M12.2493 4.24921L292.249 194.249M292.249 4.24921L12.2493 194.249" stroke="white" stroke-width="22.1"/>
<mask id="mask1_1797_889" style="mask-type:luminance" maskUnits="userSpaceOnUse" x="12" y="4" width="281" height="191">
<path d="M152.249 99.2492H292.249V194.249L152.249 99.2492ZM152.249 99.2492V194.249H12.2493L152.249 99.2492ZM152.249 99.2492H12.2493V4.24921L152.249 99.2492ZM152.249 99.2492V4.24921H292.249L152.249 99.2492Z" fill="white"/>
</mask>
<g mask="url(#mask1_1797_889)">
<path d="M12.2493 4.24921L292.249 194.249ZM292.249 4.24921L12.2493 194.249Z" fill="#000008"/>
<path d="M12.2493 4.24921L292.249 194.249M292.249 4.24921L12.2493 194.249" stroke="#C8102E" stroke-width="14.7333"/>
</g>
<path d="M152.249 4.24921V194.249ZM12.2493 99.2492H292.249Z" fill="#000008"/>
<path d="M152.249 4.24921V194.249M12.2493 99.2492H292.249" stroke="white" stroke-width="36.8333"/>
<path d="M152.249 4.24921V194.249ZM12.2493 99.2492H292.249Z" fill="#000008"/>
<path d="M152.249 4.24921V194.249M12.2493 99.2492H292.249" stroke="#C8102E" stroke-width="22.1"/>
</g>
</g>
<rect x="12.2493" y="4.24921" width="280" height="190" stroke="#A8B7D4" stroke-width="0.498424" stroke-linejoin="round"/>
</g>
<defs>
<filter id="filter0_dd_1797_889" x="0" y="0" width="304.499" height="214.498" filterUnits="userSpaceOnUse" color-interpolation-filters="sRGB">
<feFlood flood-opacity="0" result="BackgroundImageFix"/>
<feColorMatrix in="SourceAlpha" type="matrix" values="0 0 0 0 0 0 0 0 0 0 0 0 0 0 0 0 0 0 127 0" result="hardAlpha"/>
<feOffset dy="8"/>
<feGaussianBlur stdDeviation="6"/>
<feComposite in2="hardAlpha" operator="out"/>
<feColorMatrix type="matrix" values="0 0 0 0 0.258824 0 0 0 0 0.278431 0 0 0 0 0.298039 0 0 0 0.08 0"/>
<feBlend mode="normal" in2="BackgroundImageFix" result="effect1_dropShadow_1797_889"/>
<feColorMatrix in="SourceAlpha" type="matrix" values="0 0 0 0 0 0 0 0 0 0 0 0 0 0 0 0 0 0 127 0" result="hardAlpha"/>
<feOffset/>
<feGaussianBlur stdDeviation="0.5"/>
<feComposite in2="hardAlpha" operator="out"/>
<feColorMatrix type="matrix" values="0 0 0 0 0.258824 0 0 0 0 0.278431 0 0 0 0 0.298039 0 0 0 0.32 0"/>
<feBlend mode="normal" in2="effect1_dropShadow_1797_889" result="effect2_dropShadow_1797_889"/>
<feBlend mode="normal" in="SourceGraphic" in2="effect2_dropShadow_1797_889" result="shape"/>
</filter>
<clipPath id="clip0_1797_889">
<rect x="12.2493" y="4.24921" width="280" height="190" fill="white"/>
</clipPath>
</defs>
</svg>
